{
    "asset" : {
        "generator" : "Khronos glTF Blender I/O v1.5.17",
        "version" : "2.0"
    },
    "scene" : 0,
    "scenes" : [
        {
            "name" : "Scene",
            "nodes" : [
                0
            ]
        }
    ],
    "nodes" : [
        {
            "mesh" : 0,
            "name" : "PetalB.002",
            "scale" : [
                1.1721994876861572,
                1.1721994876861572,
                1.1721994876861572
            ]
        }
    ],
    "materials" : [
        {
            "doubleSided" : true,
            "name" : "Material.006",
            "normalTexture" : {
                "index" : 0,
                "scale" : 2
            },
            "pbrMetallicRoughness" : {
                "baseColorTexture" : {
                    "index" : 1
                },
                "metallicFactor" : 0,
                "roughnessFactor" : 0.7903969287872314
            }
        }
    ],
    "meshes" : [
        {
            "name" : "Circle.015",
            "primitives" : [
                {
                    "attributes" : {
                        "POSITION" : 0,
                        "NORMAL" : 1,
                        "TEXCOORD_0" : 2
                    },
                    "indices" : 3,
                    "material" : 0
                }
            ]
        }
    ],
    "textures" : [
        {
            "sampler" : 0,
            "source" : 0
        },
        {
            "sampler" : 0,
            "source" : 1
        }
    ],
    "images" : [
        {
            "bufferView" : 4,
            "mimeType" : "image/png",
            "name" : "lilyPetalNORM"
        },
        {
            "bufferView" : 5,
            "mimeType" : "image/png",
            "name" : "lily-petal-4646005"
        }
    ],
    "accessors" : [
        {
            "bufferView" : 0,
            "componentType" : 5126,
            "count" : 128,
            "max" : [
                0.881991982460022,
                1.0898128747940063,
                -0.0011604793835431337
            ],
            "min" : [
                -0.9159055948257446,
                0.007219926454126835,
                -3.931500196456909
            ],
            "type" : "VEC3"
        },
        {
            "bufferView" : 1,
            "componentType" : 5126,
            "count" : 128,
            "type" : "VEC3"
        },
        {
            "bufferView" : 2,
            "componentType" : 5126,
            "count" : 128,
            "type" : "VEC2"
        },
        {
            "bufferView" : 3,
            "componentType" : 5123,
            "count" : 756,
            "type" : "SCALAR"
        }
    ],
    "bufferViews" : [
        {
            "buffer" : 0,
            "byteLength" : 1536,
            "byteOffset" : 0
        },
        {
            "buffer" : 0,
            "byteLength" : 1536,
            "byteOffset" : 1536
        },
        {
            "buffer" : 0,
            "byteLength" : 1024,
            "byteOffset" : 3072
        },
        {
            "buffer" : 0,
            "byteLength" : 1512,
            "byteOffset" : 4096
        },
        {
            "buffer" : 0,
            "byteLength" : 617674,
            "byteOffset" : 5608
        },
        {
            "buffer" : 0,
            "byteLength" : 499008,
            "byteOffset" : 623284
        }
    ],
    "samplers" : [
        {
            "magFilter" : 9729,
            "minFilter" : 9987
        }
    ],
    "buffers" : [
        {
            "byteLength" : 1122292,
            "uri" : "data:application/octet-stream;base64,"
        }
    ]
}
