{
    "asset" : {
        "generator" : "Khronos glTF Blender I/O v1.5.17",
        "version" : "2.0"
    },
    "scene" : 0,
    "scenes" : [
        {
            "name" : "Scene",
            "nodes" : [
                0
            ]
        }
    ],
    "nodes" : [
        {
            "mesh" : 0,
            "name" : "OvaryLong"
        }
    ],
    "materials" : [
        {
            "doubleSided" : true,
            "name" : "Material.034",
            "normalTexture" : {
                "index" : 0,
                "scale" : 4.300000190734863
            },
            "pbrMetallicRoughness" : {
                "baseColorTexture" : {
                    "index" : 1
                },
                "metallicFactor" : 0,
                "roughnessFactor" : 0.7545454502105713
            }
        },
        {
            "doubleSided" : true,
            "name" : "Material.033",
            "normalTexture" : {
                "index" : 2,
                "scale" : 1.4000000953674316
            },
            "pbrMetallicRoughness" : {
                "baseColorTexture" : {
                    "index" : 3
                },
                "metallicFactor" : 0,
                "roughnessFactor" : 0.6772727370262146
            }
        },
        {
            "doubleSided" : true,
            "name" : "Material.032",
            "normalTexture" : {
                "index" : 4,
                "scale" : 1.9999998807907104
            },
            "pbrMetallicRoughness" : {
                "baseColorTexture" : {
                    "index" : 5
                },
                "metallicFactor" : 0,
                "roughnessFactor" : 0.33642810583114624
            }
        },
        {
            "doubleSided" : true,
            "name" : "Material.025",
            "normalTexture" : {
                "index" : 6
            },
            "pbrMetallicRoughness" : {
                "baseColorTexture" : {
                    "index" : 7
                },
                "metallicFactor" : 0,
                "roughnessFactor" : 0.09859156608581543
            }
        },
        {
            "doubleSided" : true,
            "name" : "Material.024",
            "normalTexture" : {
                "index" : 8,
                "scale" : 1.9999998807907104
            },
            "pbrMetallicRoughness" : {
                "baseColorTexture" : {
                    "index" : 9
                },
                "metallicFactor" : 0,
                "roughnessFactor" : 0.5
            }
        }
    ],
    "meshes" : [
        {
            "name" : "Cylinder.008",
            "primitives" : [
                {
                    "attributes" : {
                        "POSITION" : 0,
                        "NORMAL" : 1,
                        "TEXCOORD_0" : 2
                    },
                    "indices" : 3,
                    "material" : 0
                },
                {
                    "attributes" : {
                        "POSITION" : 4,
                        "NORMAL" : 5,
                        "TEXCOORD_0" : 6
                    },
                    "indices" : 7,
                    "material" : 1
                },
                {
                    "attributes" : {
                        "POSITION" : 8,
                        "NORMAL" : 9,
                        "TEXCOORD_0" : 10
                    },
                    "indices" : 11,
                    "material" : 2
                },
                {
                    "attributes" : {
                        "POSITION" : 12,
                        "NORMAL" : 13,
                        "TEXCOORD_0" : 14
                    },
                    "indices" : 15,
                    "material" : 3
                },
                {
                    "attributes" : {
                        "POSITION" : 16,
                        "NORMAL" : 17,
                        "TEXCOORD_0" : 18
                    },
                    "indices" : 19,
                    "material" : 4
                }
            ]
        }
    ],
    "textures" : [
        {
            "sampler" : 0,
            "source" : 0
        },
        {
            "sampler" : 0,
            "source" : 1
        },
        {
            "sampler" : 0,
            "source" : 2
        },
        {
            "sampler" : 0,
            "source" : 3
        },
        {
            "sampler" : 0,
            "source" : 0
        },
        {
            "sampler" : 0,
            "source" : 1
        },
        {
            "sampler" : 0,
            "source" : 4
        },
        {
            "sampler" : 0,
            "source" : 5
        },
        {
            "sampler" : 0,
            "source" : 6
        },
        {
            "sampler" : 0,
            "source" : 7
        }
    ],
    "images" : [
        {
            "bufferView" : 4,
            "mimeType" : "image/png",
            "name" : "BS_Flower_Stems_NORM"
        },
        {
            "bufferView" : 5,
            "mimeType" : "image/png",
            "name" : "BS_Flower_Stems_512_15"
        },
        {
            "bufferView" : 10,
            "mimeType" : "image/png",
            "name" : "LilyStamenNORM"
        },
        {
            "bufferView" : 11,
            "mimeType" : "image/png",
            "name" : "LilyStamenTEX"
        },
        {
            "bufferView" : 20,
            "mimeType" : "image/png",
            "name" : "anthemNORM"
        },
        {
            "bufferView" : 21,
            "mimeType" : "image/png",
            "name" : "anthers-pistil-stigma-style-white-lily-macro-close-up-pollen-coated-delicate-day-flower-45020069"
        },
        {
            "bufferView" : 26,
            "mimeType" : "image/jpeg",
            "name" : "OvaryLongNorm"
        },
        {
            "bufferView" : 27,
            "mimeType" : "image/jpeg",
            "name" : "Box06Image07"
        }
    ],
    "accessors" : [
        {
            "bufferView" : 0,
            "componentType" : 5126,
            "count" : 54,
            "max" : [
                0.29400065541267395,
                0.13841748237609863,
                0.340521901845932
            ],
            "min" : [
                -0.29145583510398865,
                -1.779005765914917,
                0.04779363423585892
            ],
            "type" : "VEC3"
        },
        {
            "bufferView" : 1,
            "componentType" : 5126,
            "count" : 54,
            "type" : "VEC3"
        },
        {
            "bufferView" : 2,
            "componentType" : 5126,
            "count" : 54,
            "type" : "VEC2"
        },
        {
            "bufferView" : 3,
            "componentType" : 5123,
            "count" : 225,
            "type" : "SCALAR"
        },
        {
            "bufferView" : 6,
            "componentType" : 5126,
            "count" : 20,
            "max" : [
                0.23681101202964783,
                2.4420182704925537,
                0.17261725664138794
            ],
            "min" : [
                -0.08791206032037735,
                0.9948246479034424,
                0.04402776062488556
            ],
            "type" : "VEC3"
        },
        {
            "bufferView" : 7,
            "componentType" : 5126,
            "count" : 20,
            "type" : "VEC3"
        },
        {
            "bufferView" : 8,
            "componentType" : 5126,
            "count" : 20,
            "type" : "VEC2"
        },
        {
            "bufferView" : 9,
            "componentType" : 5123,
            "count" : 102,
            "type" : "SCALAR"
        },
        {
            "bufferView" : 12,
            "componentType" : 5126,
            "count" : 28,
            "max" : [
                0.22145506739616394,
                1.0064823627471924,
                0.28984811902046204
            ],
            "min" : [
                -0.19499827921390533,
                0.12675261497497559,
                0.049380674958229065
            ],
            "type" : "VEC3"
        },
        {
            "bufferView" : 13,
            "componentType" : 5126,
            "count" : 28,
            "type" : "VEC3"
        },
        {
            "bufferView" : 14,
            "componentType" : 5126,
            "count" : 28,
            "type" : "VEC2"
        },
        {
            "bufferView" : 15,
            "componentType" : 5123,
            "count" : 108,
            "type" : "SCALAR"
        },
        {
            "bufferView" : 16,
            "componentType" : 5126,
            "count" : 12,
            "max" : [
                0.2641003131866455,
                2.5566565990448,
                0.23440435528755188
            ],
            "min" : [
                0.03713156282901764,
                2.366971731185913,
                0.0018314570188522339
            ],
            "type" : "VEC3"
        },
        {
            "bufferView" : 17,
            "componentType" : 5126,
            "count" : 12,
            "type" : "VEC3"
        },
        {
            "bufferView" : 18,
            "componentType" : 5126,
            "count" : 12,
            "type" : "VEC2"
        },
        {
            "bufferView" : 19,
            "componentType" : 5123,
            "count" : 60,
            "type" : "SCALAR"
        },
        {
            "bufferView" : 22,
            "componentType" : 5126,
            "count" : 8,
            "max" : [
                0.18910562992095947,
                1.0064306259155273,
                0.049421172589063644
            ],
            "min" : [
                -0.12991026043891907,
                0.12675261497497559,
                0.049380674958229065
            ],
            "type" : "VEC3"
        },
        {
            "bufferView" : 23,
            "componentType" : 5126,
            "count" : 8,
            "type" : "VEC3"
        },
        {
            "bufferView" : 24,
            "componentType" : 5126,
            "count" : 8,
            "type" : "VEC2"
        },
        {
            "bufferView" : 25,
            "componentType" : 5123,
            "count" : 18,
            "type" : "SCALAR"
        }
    ],
    "bufferViews" : [
        {
            "buffer" : 0,
            "byteLength" : 648,
            "byteOffset" : 0
        },
        {
            "buffer" : 0,
            "byteLength" : 648,
            "byteOffset" : 648
        },
        {
            "buffer" : 0,
            "byteLength" : 432,
            "byteOffset" : 1296
        },
        {
            "buffer" : 0,
            "byteLength" : 450,
            "byteOffset" : 1728
        },
        {
            "buffer" : 0,
            "byteLength" : 384881,
            "byteOffset" : 2180
        },
        {
            "buffer" : 0,
            "byteLength" : 207133,
            "byteOffset" : 387064
        },
        {
            "buffer" : 0,
            "byteLength" : 240,
            "byteOffset" : 594200
        },
        {
            "buffer" : 0,
            "byteLength" : 240,
            "byteOffset" : 594440
        },
        {
            "buffer" : 0,
            "byteLength" : 160,
            "byteOffset" : 594680
        },
        {
            "buffer" : 0,
            "byteLength" : 204,
            "byteOffset" : 594840
        },
        {
            "buffer" : 0,
            "byteLength" : 58835,
            "byteOffset" : 595044
        },
        {
            "buffer" : 0,
            "byteLength" : 46586,
            "byteOffset" : 653880
        },
        {
            "buffer" : 0,
            "byteLength" : 336,
            "byteOffset" : 700468
        },
        {
            "buffer" : 0,
            "byteLength" : 336,
            "byteOffset" : 700804
        },
        {
            "buffer" : 0,
            "byteLength" : 224,
            "byteOffset" : 701140
        },
        {
            "buffer" : 0,
            "byteLength" : 216,
            "byteOffset" : 701364
        },
        {
            "buffer" : 0,
            "byteLength" : 144,
            "byteOffset" : 701580
        },
        {
            "buffer" : 0,
            "byteLength" : 144,
            "byteOffset" : 701724
        },
        {
            "buffer" : 0,
            "byteLength" : 96,
            "byteOffset" : 701868
        },
        {
            "buffer" : 0,
            "byteLength" : 120,
            "byteOffset" : 701964
        },
        {
            "buffer" : 0,
            "byteLength" : 180375,
            "byteOffset" : 702084
        },
        {
            "buffer" : 0,
            "byteLength" : 113219,
            "byteOffset" : 882460
        },
        {
            "buffer" : 0,
            "byteLength" : 96,
            "byteOffset" : 995680
        },
        {
            "buffer" : 0,
            "byteLength" : 96,
            "byteOffset" : 995776
        },
        {
            "buffer" : 0,
            "byteLength" : 64,
            "byteOffset" : 995872
        },
        {
            "buffer" : 0,
            "byteLength" : 36,
            "byteOffset" : 995936
        },
        {
            "buffer" : 0,
            "byteLength" : 233326,
            "byteOffset" : 995972
        },
        {
            "buffer" : 0,
            "byteLength" : 102123,
            "byteOffset" : 1229300
        }
    ],
    "samplers" : [
        {
            "magFilter" : 9729,
            "minFilter" : 9987
        }
    ],
    "buffers" : [
        {
            "byteLength" : 1331424,
            "uri" : "data:application/octet-stream;base64,"
        }
    ]
}
